<svg xmlns="http://www.w3.org/2000/svg" width="1600" height="900" viewBox="0 0 1600 900" role="img" aria-labelledby="title desc">
  <title id="title">IndexRidge UK Tender Signals Starter Pack</title>
  <desc id="desc">Original geometric cover art for a public procurement data pack.</desc>
  <defs>
    <linearGradient id="bg" x1="0" y1="0" x2="1" y2="1">
      <stop offset="0" stop-color="#082f49"/>
      <stop offset="0.58" stop-color="#164e91"/>
      <stop offset="1" stop-color="#0f766e"/>
    </linearGradient>
    <linearGradient id="card" x1="0" y1="0" x2="1" y2="1">
      <stop offset="0" stop-color="#ffffff" stop-opacity="0.96"/>
      <stop offset="1" stop-color="#e0f2fe" stop-opacity="0.9"/>
    </linearGradient>
  </defs>
  <rect width="1600" height="900" fill="url(#bg)"/>
  <circle cx="1320" cy="160" r="260" fill="#22d3ee" opacity="0.14"/>
  <circle cx="210" cy="760" r="320" fill="#99f6e4" opacity="0.12"/>
  <g fill="none" stroke="#ffffff" stroke-opacity="0.18" stroke-width="3">
    <path d="M130 210h310v150H130zM520 210h310v150H520zM910 210h310v150H910z"/>
    <path d="M285 360v90h780v-90M675 360v190M1065 360v120"/>
    <circle cx="285" cy="450" r="12" fill="#ffffff" fill-opacity="0.35"/>
    <circle cx="675" cy="550" r="12" fill="#ffffff" fill-opacity="0.35"/>
    <circle cx="1065" cy="480" r="12" fill="#ffffff" fill-opacity="0.35"/>
  </g>
  <rect x="130" y="118" width="930" height="560" rx="42" fill="url(#card)"/>
  <text x="190" y="215" fill="#0f172a" font-family="-apple-system,BlinkMacSystemFont,Segoe UI,sans-serif" font-size="44" font-weight="800">IndexRidge</text>
  <text x="190" y="305" fill="#0f172a" font-family="-apple-system,BlinkMacSystemFont,Segoe UI,sans-serif" font-size="82" font-weight="900">UK Tender Signals</text>
  <text x="190" y="382" fill="#164e91" font-family="-apple-system,BlinkMacSystemFont,Segoe UI,sans-serif" font-size="48" font-weight="800">Starter Pack</text>
  <text x="190" y="465" fill="#334155" font-family="-apple-system,BlinkMacSystemFont,Segoe UI,sans-serif" font-size="31">Official open procurement data • CSV/JSON/ZIP</text>
  <text x="190" y="520" fill="#334155" font-family="-apple-system,BlinkMacSystemFont,Segoe UI,sans-serif" font-size="31">Green energy • Accessibility • SME-suitable tenders</text>
  <rect x="190" y="575" width="480" height="58" rx="29" fill="#0f766e"/>
  <text x="225" y="614" fill="#ffffff" font-family="-apple-system,BlinkMacSystemFont,Segoe UI,sans-serif" font-size="28" font-weight="800">Public-data monitoring only</text>
  <g transform="translate(1150 175)">
    <rect width="295" height="430" rx="34" fill="#ffffff" opacity="0.96"/>
    <rect x="38" y="58" width="220" height="24" rx="12" fill="#164e91" opacity="0.9"/>
    <rect x="38" y="118" width="178" height="20" rx="10" fill="#0f766e" opacity="0.85"/>
    <rect x="38" y="170" width="220" height="20" rx="10" fill="#94a3b8" opacity="0.75"/>
    <rect x="38" y="222" width="150" height="20" rx="10" fill="#94a3b8" opacity="0.75"/>
    <rect x="38" y="300" width="220" height="74" rx="22" fill="#e0f2fe"/>
    <path d="M72 337h152" stroke="#164e91" stroke-width="12" stroke-linecap="round"/>
  </g>
</svg>
